# xmcd
#
# Track frame offsets: 
#        150
#        11855
#        23933
#        47251
#        60095
#        76314
#        93042
#        102038
#        109628
#        127591
#
# Disc length: 1849 seconds
#
# Revision: 0
# Processed by: cddbd v1.5.2PL0 Copyright (c) Steve Scherf et al.
# Submitted via: ExactAudioCopy v0.99pb3
#
DISCID=5e07370a
DTITLE=Various Artist - Christmas In Blues
DYEAR=2000
DGENRE=Blues
TTITLE0=Celebrate Christmas
TTITLE1=I Wanna Spend Christmas with You
TTITLE2=Santa Claus is Coming to Town
TTITLE3=What Are You Doing Christmas Eve?
TTITLE4=Blue Decorations
TTITLE5=Santa
TTITLE6=Silver Bells
TTITLE7=Joy to the World
TTITLE8=I've Got the Christmas Spirit
TTITLE9=Let's Make Everyday Like Christmas
EXTD=
EXTT0=
EXTT1=
EXTT2=
EXTT3=
EXTT4=
EXTT5=
EXTT6=
EXTT7=
EXTT8=
EXTT9=
PLAYORDER=
